<svg xmlns="http://www.w3.org/2000/svg" xmlns:xlink="http://www.w3.org/1999/xlink" width="100" zoomAndPan="magnify" viewBox="0 0 75 74.999997" height="100" preserveAspectRatio="xMidYMid meet" version="1.0"><defs><clipPath id="5242ce426d"><path d="M 0 0.339844 L 51 0.339844 L 51 51 L 0 51 Z M 0 0.339844 " clip-rule="nonzero"/></clipPath><clipPath id="09c0b4f505"><path d="M 49 49 L 75 49 L 75 74.589844 L 49 74.589844 Z M 49 49 " clip-rule="nonzero"/></clipPath></defs><g clip-path="url(#5242ce426d)"><path fill="#ffffff" d="M 25.035156 50.347656 C 11.246094 50.347656 0.0273438 39.132812 0.0273438 25.34375 C 0.0273438 11.554688 11.246094 0.335938 25.035156 0.335938 C 38.824219 0.335938 50.039062 11.554688 50.039062 25.34375 C 50.039062 39.132812 38.820312 50.347656 25.035156 50.347656 Z M 25.035156 4.449219 C 24.347656 4.449219 23.667969 4.484375 22.984375 4.550781 C 22.304688 4.617188 21.628906 4.71875 20.957031 4.851562 C 20.285156 4.984375 19.625 5.152344 18.96875 5.351562 C 18.3125 5.546875 17.671875 5.777344 17.039062 6.039062 C 16.40625 6.300781 15.789062 6.59375 15.183594 6.917969 C 14.582031 7.238281 13.996094 7.589844 13.425781 7.972656 C 12.855469 8.351562 12.308594 8.757812 11.78125 9.191406 C 11.25 9.625 10.742188 10.085938 10.261719 10.570312 C 9.777344 11.054688 9.316406 11.558594 8.882812 12.089844 C 8.449219 12.617188 8.042969 13.167969 7.660156 13.734375 C 7.28125 14.304688 6.929688 14.890625 6.609375 15.496094 C 6.285156 16.097656 5.992188 16.714844 5.730469 17.347656 C 5.46875 17.980469 5.238281 18.625 5.039062 19.277344 C 4.84375 19.933594 4.675781 20.597656 4.542969 21.265625 C 4.410156 21.9375 4.308594 22.613281 4.242188 23.296875 C 4.175781 23.976562 4.140625 24.660156 4.140625 25.34375 C 4.140625 26.027344 4.175781 26.710938 4.242188 27.390625 C 4.308594 28.070312 4.410156 28.746094 4.542969 29.417969 C 4.675781 30.089844 4.84375 30.753906 5.039062 31.40625 C 5.238281 32.0625 5.46875 32.707031 5.730469 33.339844 C 5.992188 33.96875 6.285156 34.589844 6.609375 35.191406 C 6.929688 35.796875 7.28125 36.382812 7.660156 36.949219 C 8.042969 37.519531 8.449219 38.066406 8.882812 38.597656 C 9.316406 39.125 9.777344 39.632812 10.261719 40.117188 C 10.742188 40.601562 11.25 41.058594 11.78125 41.492188 C 12.308594 41.925781 12.855469 42.335938 13.425781 42.714844 C 13.996094 43.09375 14.582031 43.445312 15.183594 43.769531 C 15.789062 44.089844 16.40625 44.382812 17.039062 44.644531 C 17.671875 44.90625 18.3125 45.136719 18.96875 45.335938 C 19.625 45.535156 20.285156 45.699219 20.957031 45.835938 C 21.628906 45.96875 22.304688 46.066406 22.984375 46.136719 C 23.667969 46.203125 24.347656 46.234375 25.035156 46.234375 C 25.71875 46.234375 26.402344 46.203125 27.082031 46.136719 C 27.761719 46.066406 28.4375 45.96875 29.109375 45.835938 C 29.78125 45.699219 30.445312 45.535156 31.097656 45.335938 C 31.753906 45.136719 32.398438 44.90625 33.027344 44.644531 C 33.660156 44.382812 34.277344 44.089844 34.882812 43.769531 C 35.484375 43.445312 36.070312 43.09375 36.640625 42.714844 C 37.210938 42.335938 37.757812 41.925781 38.289062 41.492188 C 38.816406 41.058594 39.324219 40.601562 39.808594 40.117188 C 40.289062 39.632812 40.75 39.125 41.183594 38.597656 C 41.617188 38.066406 42.023438 37.519531 42.40625 36.949219 C 42.785156 36.382812 43.136719 35.796875 43.460938 35.191406 C 43.78125 34.589844 44.074219 33.96875 44.335938 33.339844 C 44.597656 32.707031 44.828125 32.0625 45.027344 31.40625 C 45.226562 30.753906 45.390625 30.089844 45.523438 29.417969 C 45.65625 28.746094 45.757812 28.070312 45.824219 27.390625 C 45.894531 26.710938 45.925781 26.027344 45.925781 25.34375 C 45.925781 24.660156 45.890625 23.976562 45.824219 23.296875 C 45.753906 22.617188 45.65625 21.941406 45.519531 21.269531 C 45.386719 20.597656 45.21875 19.9375 45.019531 19.28125 C 44.820312 18.628906 44.589844 17.984375 44.328125 17.351562 C 44.066406 16.71875 43.773438 16.101562 43.453125 15.5 C 43.128906 14.898438 42.777344 14.3125 42.398438 13.742188 C 42.015625 13.175781 41.609375 12.625 41.175781 12.097656 C 40.742188 11.566406 40.28125 11.0625 39.800781 10.578125 C 39.316406 10.09375 38.808594 9.636719 38.28125 9.203125 C 37.75 8.769531 37.203125 8.359375 36.632812 7.980469 C 36.066406 7.601562 35.480469 7.25 34.875 6.925781 C 34.273438 6.605469 33.65625 6.3125 33.023438 6.050781 C 32.394531 5.789062 31.75 5.558594 31.09375 5.359375 C 30.441406 5.160156 29.777344 4.992188 29.109375 4.859375 C 28.4375 4.726562 27.761719 4.625 27.082031 4.554688 C 26.398438 4.488281 25.71875 4.453125 25.035156 4.453125 Z M 25.035156 4.449219 " fill-opacity="1" fill-rule="nonzero"/></g><path fill="#ffffff" d="M 43.089844 53.050781 C 42.625 53.050781 42.199219 52.921875 41.8125 52.664062 C 41.425781 52.40625 41.144531 52.0625 40.964844 51.632812 C 40.785156 51.203125 40.742188 50.761719 40.828125 50.304688 C 40.917969 49.847656 41.128906 49.457031 41.453125 49.125 L 47.824219 42.710938 C 48.03125 42.472656 48.28125 42.285156 48.566406 42.148438 C 48.851562 42.015625 49.15625 41.941406 49.472656 41.929688 C 49.789062 41.917969 50.09375 41.96875 50.390625 42.085938 C 50.6875 42.199219 50.945312 42.371094 51.171875 42.59375 C 51.398438 42.816406 51.570312 43.074219 51.6875 43.367188 C 51.808594 43.664062 51.863281 43.96875 51.855469 44.285156 C 51.847656 44.601562 51.777344 44.902344 51.644531 45.191406 C 51.511719 45.480469 51.328125 45.730469 51.09375 45.941406 L 44.726562 52.359375 C 44.277344 52.816406 43.730469 53.046875 43.089844 53.050781 Z M 43.089844 53.050781 " fill-opacity="1" fill-rule="nonzero"/><g clip-path="url(#09c0b4f505)"><path fill="#ffffff" d="M 70.722656 74.648438 C 69.617188 74.648438 68.671875 74.253906 67.898438 73.460938 L 50.957031 56.109375 C 50.589844 55.734375 50.308594 55.304688 50.113281 54.816406 C 49.917969 54.332031 49.824219 53.824219 49.832031 53.300781 C 49.835938 52.777344 49.941406 52.277344 50.148438 51.792969 C 50.355469 51.3125 50.644531 50.890625 51.019531 50.523438 C 51.394531 50.15625 51.824219 49.878906 52.3125 49.683594 C 52.796875 49.488281 53.300781 49.394531 53.824219 49.398438 C 54.347656 49.40625 54.851562 49.511719 55.332031 49.71875 C 55.816406 49.921875 56.238281 50.214844 56.605469 50.589844 L 73.546875 67.941406 C 73.820312 68.21875 74.046875 68.53125 74.226562 68.875 C 74.40625 69.21875 74.53125 69.582031 74.601562 69.964844 C 74.675781 70.34375 74.691406 70.730469 74.652344 71.117188 C 74.609375 71.5 74.515625 71.875 74.363281 72.230469 C 74.210938 72.589844 74.011719 72.917969 73.765625 73.21875 C 73.515625 73.515625 73.230469 73.773438 72.90625 73.988281 C 72.585938 74.203125 72.238281 74.367188 71.863281 74.480469 C 71.492188 74.589844 71.113281 74.648438 70.722656 74.648438 Z M 70.722656 74.648438 " fill-opacity="1" fill-rule="nonzero"/></g><path fill="#ffffff" d="M 24.992188 42.957031 C 21.769531 42.957031 17.515625 42.03125 12.957031 38.527344 C 8.957031 35.449219 7.113281 30.71875 7.621094 24.84375 C 7.867188 22.125 8.515625 19.507812 9.5625 16.988281 C 9.628906 16.839844 9.722656 16.710938 9.839844 16.597656 C 9.960938 16.488281 10.097656 16.402344 10.25 16.34375 C 10.402344 16.289062 10.558594 16.261719 10.722656 16.265625 C 10.882812 16.269531 11.039062 16.308594 11.1875 16.375 C 11.335938 16.441406 11.46875 16.53125 11.582031 16.652344 C 11.691406 16.769531 11.777344 16.90625 11.835938 17.058594 C 11.894531 17.207031 11.921875 17.367188 11.917969 17.53125 C 11.914062 17.691406 11.878906 17.847656 11.8125 17.996094 C 10.878906 20.285156 10.296875 22.65625 10.074219 25.117188 C 9.652344 30.148438 11.128906 34 14.460938 36.566406 C 22.6875 42.894531 29.71875 39.625 29.789062 39.589844 C 29.9375 39.515625 30.09375 39.472656 30.257812 39.460938 C 30.425781 39.449219 30.585938 39.46875 30.742188 39.523438 C 30.902344 39.574219 31.042969 39.65625 31.164062 39.765625 C 31.289062 39.875 31.386719 40.007812 31.460938 40.15625 C 31.53125 40.304688 31.570312 40.460938 31.582031 40.628906 C 31.589844 40.792969 31.566406 40.953125 31.507812 41.109375 C 31.453125 41.265625 31.367188 41.40625 31.253906 41.527344 C 31.144531 41.648438 31.011719 41.746094 30.859375 41.8125 C 30.683594 41.902344 28.429688 42.957031 24.992188 42.957031 Z M 24.992188 42.957031 " fill-opacity="1" fill-rule="nonzero"/><path stroke-linecap="round" transform="matrix(3.125, 0, 0, 3.125, 0.0000015, 0.340908)" fill="none" stroke-linejoin="round" d="M 20 6.99966 C 20 7.19716 19.98125 7.39216 19.9425 7.58466 C 19.90375 7.77841 19.8475 7.96591 19.77125 8.14841 C 19.69625 8.32966 19.60375 8.50341 19.495 8.66716 C 19.385 8.83091 19.26 8.98216 19.12125 9.12091 C 18.9825 9.26091 18.83 9.38466 18.66625 9.49466 C 18.5025 9.60341 18.33 9.69591 18.1475 9.77216 C 17.96625 9.84716 17.77875 9.90341 17.585 9.94216 C 17.3925 9.98091 17.1975 9.99966 17 9.99966 C 16.8025 9.99966 16.6075 9.98091 16.415 9.94216 C 16.22125 9.90341 16.03375 9.84716 15.8525 9.77216 C 15.67 9.69591 15.4975 9.60341 15.33375 9.49466 C 15.17 9.38466 15.0175 9.26091 14.87875 9.12091 C 14.74 8.98216 14.615 8.83091 14.505 8.66716 C 14.39625 8.50341 14.30375 8.32966 14.22875 8.14841 C 14.1525 7.96591 14.09625 7.77841 14.0575 7.58466 C 14.01875 7.39216 14 7.19716 14 6.99966 C 14 6.80341 14.01875 6.60841 14.0575 6.41466 C 14.09625 6.22091 14.1525 6.03341 14.22875 5.85216 C 14.30375 5.66966 14.39625 5.49716 14.505 5.33341 C 14.615 5.16966 14.74 5.01841 14.87875 4.87841 C 15.0175 4.73966 15.17 4.61466 15.33375 4.50591 C 15.4975 4.39591 15.67 4.30341 15.8525 4.22841 C 16.03375 4.15341 16.22125 4.09591 16.415 4.05716 C 16.6075 4.01966 16.8025 3.99966 17 3.99966 C 17.1975 3.99966 17.3925 4.01966 17.585 4.05716 C 17.77875 4.09591 17.96625 4.15341 18.1475 4.22841 C 18.33 4.30341 18.5025 4.39591 18.66625 4.50591 C 18.83 4.61466 18.9825 4.73966 19.12125 4.87841 C 19.26 5.01841 19.385 5.16966 19.495 5.33341 C 19.60375 5.49716 19.69625 5.66966 19.77125 5.85216 C 19.8475 6.03341 19.90375 6.22091 19.9425 6.41466 C 19.98125 6.60841 20 6.80341 20 6.99966 Z M 20 6.99966 " stroke="#000000" stroke-width="2" stroke-opacity="1" stroke-miterlimit="4"/><path stroke-linecap="round" transform="matrix(3.125, 0, 0, 3.125, 0.0000015, 0.340908)" fill="none" stroke-linejoin="round" d="M 10 16.99966 C 10 17.19716 9.98125 17.39216 9.9425 17.58466 C 9.90375 17.77841 9.8475 17.96591 9.77125 18.14841 C 9.69625 18.32966 9.60375 18.50341 9.495 18.66716 C 9.385 18.83091 9.26 18.98216 9.12125 19.12091 C 8.9825 19.26091 8.83 19.38466 8.66625 19.49466 C 8.5025 19.60341 8.33 19.69591 8.1475 19.77216 C 7.96625 19.84716 7.77875 19.90341 7.585 19.94216 C 7.3925 19.98091 7.1975 19.99966 7 19.99966 C 6.8025 19.99966 6.6075 19.98091 6.415 19.94216 C 6.22125 19.90341 6.03375 19.84716 5.8525 19.77216 C 5.67 19.69591 5.4975 19.60341 5.33375 19.49466 C 5.17 19.38466 5.0175 19.26091 4.87875 19.12091 C 4.74 18.98216 4.615 18.83091 4.505 18.66716 C 4.39625 18.50341 4.30375 18.32966 4.22875 18.14841 C 4.1525 17.96591 4.09625 17.77841 4.0575 17.58466 C 4.01875 17.39216 4 17.19716 4 16.99966 C 4 16.80341 4.01875 16.60841 4.0575 16.41466 C 4.09625 16.22091 4.1525 16.03341 4.22875 15.85216 C 4.30375 15.66966 4.39625 15.49716 4.505 15.33341 C 4.615 15.16966 4.74 15.01841 4.87875 14.87841 C 5.0175 14.73966 5.17 14.61466 5.33375 14.50591 C 5.4975 14.39591 5.67 14.30341 5.8525 14.22841 C 6.03375 14.15341 6.22125 14.09591 6.415 14.05716 C 6.6075 14.01966 6.8025 13.99966 7 13.99966 C 7.1975 13.99966 7.3925 14.01966 7.585 14.05716 C 7.77875 14.09591 7.96625 14.15341 8.1475 14.22841 C 8.33 14.30341 8.5025 14.39591 8.66625 14.50591 C 8.83 14.61466 8.9825 14.73966 9.12125 14.87841 C 9.26 15.01841 9.385 15.16966 9.495 15.33341 C 9.60375 15.49716 9.69625 15.66966 9.77125 15.85216 C 9.8475 16.03341 9.90375 16.22091 9.9425 16.41466 C 9.98125 16.60841 10 16.80341 10 16.99966 Z M 10 16.99966 " stroke="#000000" stroke-width="2" stroke-opacity="1" stroke-miterlimit="4"/><path stroke-linecap="round" transform="matrix(3.125, 0, 0, 3.125, 0.0000015, 0.340908)" fill="none" stroke-linejoin="round" d="M 14 13.99966 L 20 13.99966 L 20 18.99966 C 20 19.13216 19.975 19.25966 19.92375 19.38216 C 19.87375 19.50466 19.80125 19.61341 19.7075 19.70716 C 19.61375 19.80091 19.505 19.87341 19.3825 19.92341 C 19.26 19.97466 19.1325 19.99966 19 19.99966 L 15 19.99966 C 14.8675 19.99966 14.74 19.97466 14.6175 19.92341 C 14.495 19.87341 14.38625 19.80091 14.2925 19.70716 C 14.19875 19.61341 14.12625 19.50466 14.07625 19.38216 C 14.025 19.25966 14 19.13216 14 18.99966 Z M 4 3.99966 L 10 3.99966 L 10 8.99966 C 10 9.13216 9.975 9.25966 9.92375 9.38216 C 9.87375 9.50466 9.80125 9.61341 9.7075 9.70716 C 9.61375 9.80091 9.505 9.87341 9.3825 9.92341 C 9.26 9.97466 9.1325 9.99966 9 9.99966 L 5 9.99966 C 4.8675 9.99966 4.74 9.97466 4.6175 9.92341 C 4.495 9.87341 4.38625 9.80091 4.2925 9.70716 C 4.19875 9.61341 4.12625 9.50466 4.07625 9.38216 C 4.025 9.25966 4 9.13216 4 8.99966 Z M 4 3.99966 " stroke="#000000" stroke-width="2" stroke-opacity="1" stroke-miterlimit="4"/></svg>