<svg xmlns="http://www.w3.org/2000/svg" xmlns:xlink="http://www.w3.org/1999/xlink" width="100" zoomAndPan="magnify" viewBox="0 0 75 74.999997" height="100" preserveAspectRatio="xMidYMid meet" version="1.0"><defs><clipPath id="aed54f0cd5"><path d="M 0 0.339844 L 51 0.339844 L 51 51 L 0 51 Z M 0 0.339844 " clip-rule="nonzero"/></clipPath><clipPath id="f46fa370eb"><path d="M 49 49 L 75 49 L 75 74.589844 L 49 74.589844 Z M 49 49 " clip-rule="nonzero"/></clipPath></defs><g clip-path="url(#aed54f0cd5)"><path fill="#ffffff" d="M 25.035156 50.347656 C 11.246094 50.347656 0.0273438 39.132812 0.0273438 25.34375 C 0.0273438 11.554688 11.246094 0.335938 25.035156 0.335938 C 38.824219 0.335938 50.039062 11.554688 50.039062 25.34375 C 50.039062 39.132812 38.820312 50.347656 25.035156 50.347656 Z M 25.035156 4.449219 C 24.347656 4.449219 23.667969 4.484375 22.984375 4.550781 C 22.304688 4.617188 21.628906 4.71875 20.957031 4.851562 C 20.285156 4.984375 19.625 5.152344 18.96875 5.351562 C 18.3125 5.546875 17.671875 5.777344 17.039062 6.039062 C 16.40625 6.300781 15.789062 6.59375 15.183594 6.917969 C 14.582031 7.238281 13.996094 7.589844 13.425781 7.972656 C 12.855469 8.351562 12.308594 8.757812 11.78125 9.191406 C 11.25 9.625 10.742188 10.085938 10.261719 10.570312 C 9.777344 11.054688 9.316406 11.558594 8.882812 12.089844 C 8.449219 12.617188 8.042969 13.167969 7.660156 13.734375 C 7.28125 14.304688 6.929688 14.890625 6.609375 15.496094 C 6.285156 16.097656 5.992188 16.714844 5.730469 17.347656 C 5.46875 17.980469 5.238281 18.625 5.039062 19.277344 C 4.84375 19.933594 4.675781 20.597656 4.542969 21.265625 C 4.410156 21.9375 4.308594 22.613281 4.242188 23.296875 C 4.175781 23.976562 4.140625 24.660156 4.140625 25.34375 C 4.140625 26.027344 4.175781 26.710938 4.242188 27.390625 C 4.308594 28.070312 4.410156 28.746094 4.542969 29.417969 C 4.675781 30.089844 4.84375 30.753906 5.039062 31.40625 C 5.238281 32.0625 5.46875 32.707031 5.730469 33.339844 C 5.992188 33.96875 6.285156 34.589844 6.609375 35.191406 C 6.929688 35.796875 7.28125 36.382812 7.660156 36.949219 C 8.042969 37.519531 8.449219 38.066406 8.882812 38.597656 C 9.316406 39.125 9.777344 39.632812 10.261719 40.117188 C 10.742188 40.601562 11.25 41.058594 11.78125 41.492188 C 12.308594 41.925781 12.855469 42.335938 13.425781 42.714844 C 13.996094 43.09375 14.582031 43.445312 15.183594 43.769531 C 15.789062 44.089844 16.40625 44.382812 17.039062 44.644531 C 17.671875 44.90625 18.3125 45.136719 18.96875 45.335938 C 19.625 45.535156 20.285156 45.699219 20.957031 45.835938 C 21.628906 45.96875 22.304688 46.066406 22.984375 46.136719 C 23.667969 46.203125 24.347656 46.234375 25.035156 46.234375 C 25.71875 46.234375 26.402344 46.203125 27.082031 46.136719 C 27.761719 46.066406 28.4375 45.96875 29.109375 45.835938 C 29.78125 45.699219 30.445312 45.535156 31.097656 45.335938 C 31.753906 45.136719 32.398438 44.90625 33.027344 44.644531 C 33.660156 44.382812 34.277344 44.089844 34.882812 43.769531 C 35.484375 43.445312 36.070312 43.09375 36.640625 42.714844 C 37.210938 42.335938 37.757812 41.925781 38.289062 41.492188 C 38.816406 41.058594 39.324219 40.601562 39.808594 40.117188 C 40.289062 39.632812 40.75 39.125 41.183594 38.597656 C 41.617188 38.066406 42.023438 37.519531 42.40625 36.949219 C 42.785156 36.382812 43.136719 35.796875 43.460938 35.191406 C 43.78125 34.589844 44.074219 33.96875 44.335938 33.339844 C 44.597656 32.707031 44.828125 32.0625 45.027344 31.40625 C 45.226562 30.753906 45.390625 30.089844 45.523438 29.417969 C 45.65625 28.746094 45.757812 28.070312 45.824219 27.390625 C 45.894531 26.710938 45.925781 26.027344 45.925781 25.34375 C 45.925781 24.660156 45.890625 23.976562 45.824219 23.296875 C 45.753906 22.617188 45.65625 21.941406 45.519531 21.269531 C 45.386719 20.597656 45.21875 19.9375 45.019531 19.28125 C 44.820312 18.628906 44.589844 17.984375 44.328125 17.351562 C 44.066406 16.71875 43.773438 16.101562 43.453125 15.5 C 43.128906 14.898438 42.777344 14.3125 42.398438 13.742188 C 42.015625 13.175781 41.609375 12.625 41.175781 12.097656 C 40.742188 11.566406 40.28125 11.0625 39.800781 10.578125 C 39.316406 10.09375 38.808594 9.636719 38.28125 9.203125 C 37.75 8.769531 37.203125 8.359375 36.632812 7.980469 C 36.066406 7.601562 35.480469 7.25 34.875 6.925781 C 34.273438 6.605469 33.65625 6.3125 33.023438 6.050781 C 32.394531 5.789062 31.75 5.558594 31.09375 5.359375 C 30.441406 5.160156 29.777344 4.992188 29.109375 4.859375 C 28.4375 4.726562 27.761719 4.625 27.082031 4.554688 C 26.398438 4.488281 25.71875 4.453125 25.035156 4.453125 Z M 25.035156 4.449219 " fill-opacity="1" fill-rule="nonzero"/></g><path fill="#ffffff" d="M 43.089844 53.050781 C 42.625 53.050781 42.199219 52.921875 41.8125 52.664062 C 41.425781 52.40625 41.144531 52.0625 40.964844 51.632812 C 40.785156 51.203125 40.742188 50.761719 40.828125 50.304688 C 40.917969 49.847656 41.128906 49.457031 41.453125 49.125 L 47.824219 42.710938 C 48.03125 42.472656 48.28125 42.285156 48.566406 42.148438 C 48.851562 42.015625 49.15625 41.941406 49.472656 41.929688 C 49.789062 41.917969 50.09375 41.96875 50.390625 42.085938 C 50.6875 42.199219 50.945312 42.371094 51.171875 42.59375 C 51.398438 42.816406 51.570312 43.074219 51.6875 43.367188 C 51.808594 43.664062 51.863281 43.96875 51.855469 44.285156 C 51.847656 44.601562 51.777344 44.902344 51.644531 45.191406 C 51.511719 45.480469 51.328125 45.730469 51.09375 45.941406 L 44.726562 52.359375 C 44.277344 52.816406 43.730469 53.046875 43.089844 53.050781 Z M 43.089844 53.050781 " fill-opacity="1" fill-rule="nonzero"/><g clip-path="url(#f46fa370eb)"><path fill="#ffffff" d="M 70.722656 74.648438 C 69.617188 74.648438 68.671875 74.253906 67.898438 73.460938 L 50.957031 56.109375 C 50.589844 55.734375 50.308594 55.304688 50.113281 54.816406 C 49.917969 54.332031 49.824219 53.824219 49.832031 53.300781 C 49.835938 52.777344 49.941406 52.277344 50.148438 51.792969 C 50.355469 51.3125 50.644531 50.890625 51.019531 50.523438 C 51.394531 50.15625 51.824219 49.878906 52.3125 49.683594 C 52.796875 49.488281 53.300781 49.394531 53.824219 49.398438 C 54.347656 49.40625 54.851562 49.511719 55.332031 49.71875 C 55.816406 49.921875 56.238281 50.214844 56.605469 50.589844 L 73.546875 67.941406 C 73.820312 68.21875 74.046875 68.53125 74.226562 68.875 C 74.40625 69.21875 74.53125 69.582031 74.601562 69.964844 C 74.675781 70.34375 74.691406 70.730469 74.652344 71.117188 C 74.609375 71.5 74.515625 71.875 74.363281 72.230469 C 74.210938 72.589844 74.011719 72.917969 73.765625 73.21875 C 73.515625 73.515625 73.230469 73.773438 72.90625 73.988281 C 72.585938 74.203125 72.238281 74.367188 71.863281 74.480469 C 71.492188 74.589844 71.113281 74.648438 70.722656 74.648438 Z M 70.722656 74.648438 " fill-opacity="1" fill-rule="nonzero"/></g><path fill="#ffffff" d="M 24.992188 42.957031 C 21.769531 42.957031 17.515625 42.03125 12.957031 38.527344 C 8.957031 35.449219 7.113281 30.71875 7.621094 24.84375 C 7.867188 22.125 8.515625 19.507812 9.5625 16.988281 C 9.628906 16.839844 9.722656 16.710938 9.839844 16.597656 C 9.960938 16.488281 10.097656 16.402344 10.25 16.34375 C 10.402344 16.289062 10.558594 16.261719 10.722656 16.265625 C 10.882812 16.269531 11.039062 16.308594 11.1875 16.375 C 11.335938 16.441406 11.46875 16.53125 11.582031 16.652344 C 11.691406 16.769531 11.777344 16.90625 11.835938 17.058594 C 11.894531 17.207031 11.921875 17.367188 11.917969 17.53125 C 11.914062 17.691406 11.878906 17.847656 11.8125 17.996094 C 10.878906 20.285156 10.296875 22.65625 10.074219 25.117188 C 9.652344 30.148438 11.128906 34 14.460938 36.566406 C 22.6875 42.894531 29.71875 39.625 29.789062 39.589844 C 29.9375 39.515625 30.09375 39.472656 30.257812 39.460938 C 30.425781 39.449219 30.585938 39.46875 30.742188 39.523438 C 30.902344 39.574219 31.042969 39.65625 31.164062 39.765625 C 31.289062 39.875 31.386719 40.007812 31.460938 40.15625 C 31.53125 40.304688 31.570312 40.460938 31.582031 40.628906 C 31.589844 40.792969 31.566406 40.953125 31.507812 41.109375 C 31.453125 41.265625 31.367188 41.40625 31.253906 41.527344 C 31.144531 41.648438 31.011719 41.746094 30.859375 41.8125 C 30.683594 41.902344 28.429688 42.957031 24.992188 42.957031 Z M 24.992188 42.957031 " fill-opacity="1" fill-rule="nonzero"/><path fill="#000000" d="M 62.214844 54.480469 C 62.511719 54.480469 62.804688 54.507812 63.09375 54.566406 C 63.382812 54.621094 63.664062 54.703125 63.9375 54.8125 C 64.214844 54.925781 64.476562 55.058594 64.722656 55.21875 C 64.972656 55.378906 65.203125 55.558594 65.417969 55.761719 C 65.628906 55.96875 65.820312 56.1875 65.992188 56.429688 C 66.164062 56.671875 66.3125 56.925781 66.433594 57.195312 C 66.558594 57.460938 66.652344 57.738281 66.722656 58.027344 C 66.792969 58.3125 66.835938 58.605469 66.847656 58.898438 C 66.863281 59.195312 66.847656 59.488281 66.808594 59.78125 C 66.765625 60.070312 66.695312 60.359375 66.601562 60.636719 C 66.503906 60.914062 66.382812 61.183594 66.234375 61.4375 C 66.085938 61.695312 65.917969 61.933594 65.722656 62.15625 C 65.53125 62.382812 65.316406 62.585938 65.085938 62.765625 C 64.855469 62.949219 64.605469 63.109375 64.34375 63.246094 C 64.082031 63.378906 63.808594 63.488281 63.527344 63.574219 C 63.242188 63.65625 62.957031 63.710938 62.660156 63.742188 L 62.214844 63.761719 L 12.714844 63.761719 C 12.421875 63.761719 12.128906 63.734375 11.839844 63.679688 C 11.546875 63.621094 11.265625 63.539062 10.992188 63.429688 C 10.71875 63.320312 10.457031 63.183594 10.207031 63.027344 C 9.960938 62.867188 9.730469 62.683594 9.515625 62.480469 C 9.300781 62.277344 9.109375 62.054688 8.9375 61.8125 C 8.765625 61.574219 8.621094 61.320312 8.496094 61.050781 C 8.375 60.78125 8.277344 60.503906 8.207031 60.21875 C 8.140625 59.929688 8.097656 59.640625 8.082031 59.34375 C 8.070312 59.050781 8.082031 58.757812 8.125 58.464844 C 8.167969 58.171875 8.234375 57.886719 8.332031 57.609375 C 8.429688 57.328125 8.550781 57.0625 8.699219 56.804688 C 8.84375 56.550781 9.015625 56.308594 9.207031 56.085938 C 9.402344 55.863281 9.613281 55.660156 9.84375 55.476562 C 10.078125 55.292969 10.324219 55.136719 10.585938 55 C 10.847656 54.863281 11.121094 54.753906 11.40625 54.671875 C 11.6875 54.585938 11.976562 54.53125 12.269531 54.503906 L 12.714844 54.480469 Z M 62.214844 32.824219 C 62.519531 32.824219 62.824219 32.855469 63.121094 32.914062 C 63.421875 32.972656 63.710938 33.0625 63.992188 33.179688 C 64.273438 33.296875 64.539062 33.4375 64.792969 33.605469 C 65.046875 33.777344 65.28125 33.96875 65.496094 34.183594 C 65.710938 34.398438 65.90625 34.632812 66.074219 34.886719 C 66.242188 35.140625 66.386719 35.410156 66.503906 35.691406 C 66.621094 35.972656 66.707031 36.261719 66.765625 36.5625 C 66.828125 36.859375 66.855469 37.160156 66.855469 37.464844 C 66.855469 37.769531 66.828125 38.074219 66.765625 38.371094 C 66.707031 38.671875 66.621094 38.960938 66.503906 39.242188 C 66.386719 39.523438 66.242188 39.789062 66.074219 40.042969 C 65.90625 40.296875 65.710938 40.53125 65.496094 40.746094 C 65.28125 40.960938 65.046875 41.15625 64.792969 41.324219 C 64.539062 41.492188 64.273438 41.636719 63.992188 41.753906 C 63.710938 41.871094 63.421875 41.957031 63.121094 42.015625 C 62.824219 42.078125 62.519531 42.105469 62.214844 42.105469 L 12.714844 42.105469 C 12.410156 42.105469 12.109375 42.078125 11.8125 42.015625 C 11.511719 41.957031 11.222656 41.871094 10.941406 41.753906 C 10.660156 41.636719 10.390625 41.492188 10.136719 41.324219 C 9.882812 41.15625 9.648438 40.960938 9.433594 40.746094 C 9.21875 40.53125 9.027344 40.296875 8.855469 40.042969 C 8.6875 39.789062 8.546875 39.523438 8.429688 39.242188 C 8.3125 38.960938 8.222656 38.671875 8.164062 38.371094 C 8.105469 38.074219 8.074219 37.769531 8.074219 37.464844 C 8.074219 37.160156 8.105469 36.859375 8.164062 36.5625 C 8.222656 36.261719 8.3125 35.972656 8.429688 35.691406 C 8.546875 35.410156 8.6875 35.140625 8.855469 34.886719 C 9.027344 34.632812 9.21875 34.398438 9.433594 34.183594 C 9.648438 33.96875 9.882812 33.777344 10.136719 33.605469 C 10.390625 33.4375 10.660156 33.296875 10.941406 33.179688 C 11.222656 33.0625 11.511719 32.972656 11.8125 32.914062 C 12.109375 32.855469 12.410156 32.824219 12.714844 32.824219 Z M 62.214844 11.167969 C 62.519531 11.167969 62.824219 11.199219 63.121094 11.257812 C 63.421875 11.316406 63.710938 11.40625 63.992188 11.523438 C 64.273438 11.640625 64.539062 11.78125 64.792969 11.949219 C 65.046875 12.121094 65.28125 12.3125 65.496094 12.527344 C 65.710938 12.742188 65.90625 12.976562 66.074219 13.230469 C 66.242188 13.484375 66.386719 13.753906 66.503906 14.035156 C 66.621094 14.316406 66.707031 14.605469 66.765625 14.90625 C 66.828125 15.203125 66.855469 15.503906 66.855469 15.808594 C 66.855469 16.113281 66.828125 16.417969 66.765625 16.714844 C 66.707031 17.015625 66.621094 17.304688 66.503906 17.585938 C 66.386719 17.867188 66.242188 18.132812 66.074219 18.386719 C 65.90625 18.640625 65.710938 18.875 65.496094 19.089844 C 65.28125 19.304688 65.046875 19.5 64.792969 19.667969 C 64.539062 19.835938 64.273438 19.980469 63.992188 20.097656 C 63.710938 20.214844 63.421875 20.300781 63.121094 20.359375 C 62.824219 20.421875 62.519531 20.449219 62.214844 20.449219 L 12.714844 20.449219 C 12.410156 20.449219 12.109375 20.421875 11.8125 20.359375 C 11.511719 20.300781 11.222656 20.214844 10.941406 20.097656 C 10.660156 19.980469 10.390625 19.835938 10.136719 19.667969 C 9.882812 19.5 9.648438 19.304688 9.433594 19.089844 C 9.21875 18.875 9.027344 18.640625 8.855469 18.386719 C 8.6875 18.132812 8.546875 17.867188 8.429688 17.585938 C 8.3125 17.304688 8.222656 17.015625 8.164062 16.714844 C 8.105469 16.417969 8.074219 16.113281 8.074219 15.808594 C 8.074219 15.503906 8.105469 15.203125 8.164062 14.90625 C 8.222656 14.605469 8.3125 14.316406 8.429688 14.035156 C 8.546875 13.753906 8.6875 13.484375 8.855469 13.230469 C 9.027344 12.976562 9.21875 12.742188 9.433594 12.527344 C 9.648438 12.3125 9.882812 12.121094 10.136719 11.949219 C 10.390625 11.78125 10.660156 11.640625 10.941406 11.523438 C 11.222656 11.40625 11.511719 11.316406 11.8125 11.257812 C 12.109375 11.199219 12.410156 11.167969 12.714844 11.167969 Z M 62.214844 11.167969 " fill-opacity="1" fill-rule="nonzero"/></svg>