<svg xmlns="http://www.w3.org/2000/svg" xmlns:xlink="http://www.w3.org/1999/xlink" width="100" zoomAndPan="magnify" viewBox="0 0 75 74.999997" height="100" preserveAspectRatio="xMidYMid meet" version="1.0"><defs><clipPath id="85cb9283f3"><path d="M 0 0.339844 L 51 0.339844 L 51 51 L 0 51 Z M 0 0.339844 " clip-rule="nonzero"/></clipPath><clipPath id="9033fa63c1"><path d="M 49 49 L 75 49 L 75 74.589844 L 49 74.589844 Z M 49 49 " clip-rule="nonzero"/></clipPath></defs><g clip-path="url(#85cb9283f3)"><path fill="#ffffff" d="M 25.035156 50.347656 C 11.246094 50.347656 0.0273438 39.132812 0.0273438 25.34375 C 0.0273438 11.554688 11.246094 0.335938 25.035156 0.335938 C 38.824219 0.335938 50.039062 11.554688 50.039062 25.34375 C 50.039062 39.132812 38.820312 50.347656 25.035156 50.347656 Z M 25.035156 4.449219 C 24.347656 4.449219 23.667969 4.484375 22.984375 4.550781 C 22.304688 4.617188 21.628906 4.71875 20.957031 4.851562 C 20.285156 4.984375 19.625 5.152344 18.96875 5.351562 C 18.3125 5.546875 17.671875 5.777344 17.039062 6.039062 C 16.40625 6.300781 15.789062 6.59375 15.183594 6.917969 C 14.582031 7.238281 13.996094 7.589844 13.425781 7.972656 C 12.855469 8.351562 12.308594 8.757812 11.78125 9.191406 C 11.25 9.625 10.742188 10.085938 10.261719 10.570312 C 9.777344 11.054688 9.316406 11.558594 8.882812 12.089844 C 8.449219 12.617188 8.042969 13.167969 7.660156 13.734375 C 7.28125 14.304688 6.929688 14.890625 6.609375 15.496094 C 6.285156 16.097656 5.992188 16.714844 5.730469 17.347656 C 5.46875 17.980469 5.238281 18.625 5.039062 19.277344 C 4.84375 19.933594 4.675781 20.597656 4.542969 21.265625 C 4.410156 21.9375 4.308594 22.613281 4.242188 23.296875 C 4.175781 23.976562 4.140625 24.660156 4.140625 25.34375 C 4.140625 26.027344 4.175781 26.710938 4.242188 27.390625 C 4.308594 28.070312 4.410156 28.746094 4.542969 29.417969 C 4.675781 30.089844 4.84375 30.753906 5.039062 31.40625 C 5.238281 32.0625 5.46875 32.707031 5.730469 33.339844 C 5.992188 33.96875 6.285156 34.589844 6.609375 35.191406 C 6.929688 35.796875 7.28125 36.382812 7.660156 36.949219 C 8.042969 37.519531 8.449219 38.066406 8.882812 38.597656 C 9.316406 39.125 9.777344 39.632812 10.261719 40.117188 C 10.742188 40.601562 11.25 41.058594 11.78125 41.492188 C 12.308594 41.925781 12.855469 42.335938 13.425781 42.714844 C 13.996094 43.09375 14.582031 43.445312 15.183594 43.769531 C 15.789062 44.089844 16.40625 44.382812 17.039062 44.644531 C 17.671875 44.90625 18.3125 45.136719 18.96875 45.335938 C 19.625 45.535156 20.285156 45.699219 20.957031 45.835938 C 21.628906 45.96875 22.304688 46.066406 22.984375 46.136719 C 23.667969 46.203125 24.347656 46.234375 25.035156 46.234375 C 25.71875 46.234375 26.402344 46.203125 27.082031 46.136719 C 27.761719 46.066406 28.4375 45.96875 29.109375 45.835938 C 29.78125 45.699219 30.445312 45.535156 31.097656 45.335938 C 31.753906 45.136719 32.398438 44.90625 33.027344 44.644531 C 33.660156 44.382812 34.277344 44.089844 34.882812 43.769531 C 35.484375 43.445312 36.070312 43.09375 36.640625 42.714844 C 37.210938 42.335938 37.757812 41.925781 38.289062 41.492188 C 38.816406 41.058594 39.324219 40.601562 39.808594 40.117188 C 40.289062 39.632812 40.75 39.125 41.183594 38.597656 C 41.617188 38.066406 42.023438 37.519531 42.40625 36.949219 C 42.785156 36.382812 43.136719 35.796875 43.460938 35.191406 C 43.78125 34.589844 44.074219 33.96875 44.335938 33.339844 C 44.597656 32.707031 44.828125 32.0625 45.027344 31.40625 C 45.226562 30.753906 45.390625 30.089844 45.523438 29.417969 C 45.65625 28.746094 45.757812 28.070312 45.824219 27.390625 C 45.894531 26.710938 45.925781 26.027344 45.925781 25.34375 C 45.925781 24.660156 45.890625 23.976562 45.824219 23.296875 C 45.753906 22.617188 45.65625 21.941406 45.519531 21.269531 C 45.386719 20.597656 45.21875 19.9375 45.019531 19.28125 C 44.820312 18.628906 44.589844 17.984375 44.328125 17.351562 C 44.066406 16.71875 43.773438 16.101562 43.453125 15.5 C 43.128906 14.898438 42.777344 14.3125 42.398438 13.742188 C 42.015625 13.175781 41.609375 12.625 41.175781 12.097656 C 40.742188 11.566406 40.28125 11.0625 39.800781 10.578125 C 39.316406 10.09375 38.808594 9.636719 38.28125 9.203125 C 37.75 8.769531 37.203125 8.359375 36.632812 7.980469 C 36.066406 7.601562 35.480469 7.25 34.875 6.925781 C 34.273438 6.605469 33.65625 6.3125 33.023438 6.050781 C 32.394531 5.789062 31.75 5.558594 31.09375 5.359375 C 30.441406 5.160156 29.777344 4.992188 29.109375 4.859375 C 28.4375 4.726562 27.761719 4.625 27.082031 4.554688 C 26.398438 4.488281 25.71875 4.453125 25.035156 4.453125 Z M 25.035156 4.449219 " fill-opacity="1" fill-rule="nonzero"/></g><path fill="#ffffff" d="M 43.089844 53.050781 C 42.625 53.050781 42.199219 52.921875 41.8125 52.664062 C 41.425781 52.40625 41.144531 52.0625 40.964844 51.632812 C 40.785156 51.203125 40.742188 50.761719 40.828125 50.304688 C 40.917969 49.847656 41.128906 49.457031 41.453125 49.125 L 47.824219 42.710938 C 48.03125 42.472656 48.28125 42.285156 48.566406 42.148438 C 48.851562 42.015625 49.15625 41.941406 49.472656 41.929688 C 49.789062 41.917969 50.09375 41.96875 50.390625 42.085938 C 50.6875 42.199219 50.945312 42.371094 51.171875 42.59375 C 51.398438 42.816406 51.570312 43.074219 51.6875 43.367188 C 51.808594 43.664062 51.863281 43.96875 51.855469 44.285156 C 51.847656 44.601562 51.777344 44.902344 51.644531 45.191406 C 51.511719 45.480469 51.328125 45.730469 51.09375 45.941406 L 44.726562 52.359375 C 44.277344 52.816406 43.730469 53.046875 43.089844 53.050781 Z M 43.089844 53.050781 " fill-opacity="1" fill-rule="nonzero"/><g clip-path="url(#9033fa63c1)"><path fill="#ffffff" d="M 70.722656 74.648438 C 69.617188 74.648438 68.671875 74.253906 67.898438 73.460938 L 50.957031 56.109375 C 50.589844 55.734375 50.308594 55.304688 50.113281 54.816406 C 49.917969 54.332031 49.824219 53.824219 49.832031 53.300781 C 49.835938 52.777344 49.941406 52.277344 50.148438 51.792969 C 50.355469 51.3125 50.644531 50.890625 51.019531 50.523438 C 51.394531 50.15625 51.824219 49.878906 52.3125 49.683594 C 52.796875 49.488281 53.300781 49.394531 53.824219 49.398438 C 54.347656 49.40625 54.851562 49.511719 55.332031 49.71875 C 55.816406 49.921875 56.238281 50.214844 56.605469 50.589844 L 73.546875 67.941406 C 73.820312 68.21875 74.046875 68.53125 74.226562 68.875 C 74.40625 69.21875 74.53125 69.582031 74.601562 69.964844 C 74.675781 70.34375 74.691406 70.730469 74.652344 71.117188 C 74.609375 71.5 74.515625 71.875 74.363281 72.230469 C 74.210938 72.589844 74.011719 72.917969 73.765625 73.21875 C 73.515625 73.515625 73.230469 73.773438 72.90625 73.988281 C 72.585938 74.203125 72.238281 74.367188 71.863281 74.480469 C 71.492188 74.589844 71.113281 74.648438 70.722656 74.648438 Z M 70.722656 74.648438 " fill-opacity="1" fill-rule="nonzero"/></g><path fill="#ffffff" d="M 24.992188 42.957031 C 21.769531 42.957031 17.515625 42.03125 12.957031 38.527344 C 8.957031 35.449219 7.113281 30.71875 7.621094 24.84375 C 7.867188 22.125 8.515625 19.507812 9.5625 16.988281 C 9.628906 16.839844 9.722656 16.710938 9.839844 16.597656 C 9.960938 16.488281 10.097656 16.402344 10.25 16.34375 C 10.402344 16.289062 10.558594 16.261719 10.722656 16.265625 C 10.882812 16.269531 11.039062 16.308594 11.1875 16.375 C 11.335938 16.441406 11.46875 16.53125 11.582031 16.652344 C 11.691406 16.769531 11.777344 16.90625 11.835938 17.058594 C 11.894531 17.207031 11.921875 17.367188 11.917969 17.53125 C 11.914062 17.691406 11.878906 17.847656 11.8125 17.996094 C 10.878906 20.285156 10.296875 22.65625 10.074219 25.117188 C 9.652344 30.148438 11.128906 34 14.460938 36.566406 C 22.6875 42.894531 29.71875 39.625 29.789062 39.589844 C 29.9375 39.515625 30.09375 39.472656 30.257812 39.460938 C 30.425781 39.449219 30.585938 39.46875 30.742188 39.523438 C 30.902344 39.574219 31.042969 39.65625 31.164062 39.765625 C 31.289062 39.875 31.386719 40.007812 31.460938 40.15625 C 31.53125 40.304688 31.570312 40.460938 31.582031 40.628906 C 31.589844 40.792969 31.566406 40.953125 31.507812 41.109375 C 31.453125 41.265625 31.367188 41.40625 31.253906 41.527344 C 31.144531 41.648438 31.011719 41.746094 30.859375 41.8125 C 30.683594 41.902344 28.429688 42.957031 24.992188 42.957031 Z M 24.992188 42.957031 " fill-opacity="1" fill-rule="nonzero"/><path fill="#000000" d="M 44.089844 56.25 C 44.089844 56.660156 44.050781 57.066406 43.972656 57.46875 C 43.890625 57.871094 43.773438 58.261719 43.613281 58.640625 C 43.457031 59.019531 43.265625 59.382812 43.039062 59.722656 C 42.808594 60.0625 42.550781 60.378906 42.261719 60.667969 C 41.96875 60.960938 41.65625 61.21875 41.3125 61.445312 C 40.972656 61.675781 40.613281 61.867188 40.234375 62.023438 C 39.855469 62.179688 39.460938 62.300781 39.058594 62.378906 C 38.65625 62.460938 38.25 62.5 37.839844 62.5 C 37.429688 62.5 37.023438 62.460938 36.621094 62.378906 C 36.21875 62.300781 35.828125 62.179688 35.449219 62.023438 C 35.070312 61.867188 34.710938 61.675781 34.367188 61.445312 C 34.027344 61.21875 33.710938 60.960938 33.421875 60.667969 C 33.132812 60.378906 32.871094 60.0625 32.644531 59.722656 C 32.417969 59.382812 32.222656 59.019531 32.066406 58.640625 C 31.910156 58.261719 31.792969 57.871094 31.710938 57.46875 C 31.632812 57.066406 31.589844 56.660156 31.589844 56.25 C 31.589844 55.839844 31.632812 55.433594 31.710938 55.03125 C 31.792969 54.628906 31.910156 54.238281 32.066406 53.859375 C 32.222656 53.480469 32.417969 53.117188 32.644531 52.777344 C 32.871094 52.4375 33.132812 52.121094 33.421875 51.832031 C 33.710938 51.539062 34.027344 51.28125 34.367188 51.054688 C 34.710938 50.824219 35.070312 50.632812 35.449219 50.476562 C 35.828125 50.320312 36.21875 50.199219 36.621094 50.121094 C 37.023438 50.039062 37.429688 50 37.839844 50 C 38.25 50 38.65625 50.039062 39.058594 50.121094 C 39.460938 50.199219 39.855469 50.320312 40.234375 50.476562 C 40.613281 50.632812 40.972656 50.824219 41.3125 51.054688 C 41.65625 51.28125 41.96875 51.539062 42.261719 51.832031 C 42.550781 52.121094 42.808594 52.4375 43.039062 52.777344 C 43.265625 53.117188 43.457031 53.480469 43.613281 53.859375 C 43.773438 54.238281 43.890625 54.628906 43.972656 55.03125 C 44.050781 55.433594 44.089844 55.839844 44.089844 56.25 M 44.089844 37.5 C 44.089844 37.910156 44.050781 38.316406 43.972656 38.71875 C 43.890625 39.121094 43.773438 39.511719 43.613281 39.890625 C 43.457031 40.269531 43.265625 40.632812 43.039062 40.972656 C 42.808594 41.3125 42.550781 41.628906 42.261719 41.917969 C 41.96875 42.210938 41.65625 42.46875 41.3125 42.695312 C 40.972656 42.925781 40.613281 43.117188 40.234375 43.273438 C 39.855469 43.429688 39.460938 43.550781 39.058594 43.628906 C 38.65625 43.710938 38.25 43.75 37.839844 43.75 C 37.429688 43.75 37.023438 43.710938 36.621094 43.628906 C 36.21875 43.550781 35.828125 43.429688 35.449219 43.273438 C 35.070312 43.117188 34.710938 42.925781 34.367188 42.695312 C 34.027344 42.46875 33.710938 42.210938 33.421875 41.917969 C 33.132812 41.628906 32.871094 41.3125 32.644531 40.972656 C 32.417969 40.632812 32.222656 40.269531 32.066406 39.890625 C 31.910156 39.511719 31.792969 39.121094 31.710938 38.71875 C 31.632812 38.316406 31.589844 37.910156 31.589844 37.5 C 31.589844 37.089844 31.632812 36.683594 31.710938 36.28125 C 31.792969 35.878906 31.910156 35.488281 32.066406 35.109375 C 32.222656 34.730469 32.417969 34.367188 32.644531 34.027344 C 32.871094 33.6875 33.132812 33.371094 33.421875 33.082031 C 33.710938 32.789062 34.027344 32.53125 34.367188 32.304688 C 34.710938 32.074219 35.070312 31.882812 35.449219 31.726562 C 35.828125 31.570312 36.21875 31.449219 36.621094 31.371094 C 37.023438 31.289062 37.429688 31.25 37.839844 31.25 C 38.25 31.25 38.65625 31.289062 39.058594 31.371094 C 39.460938 31.449219 39.855469 31.570312 40.234375 31.726562 C 40.613281 31.882812 40.972656 32.074219 41.3125 32.304688 C 41.65625 32.53125 41.96875 32.789062 42.261719 33.082031 C 42.550781 33.371094 42.808594 33.6875 43.039062 34.027344 C 43.265625 34.367188 43.457031 34.730469 43.613281 35.109375 C 43.773438 35.488281 43.890625 35.878906 43.972656 36.28125 C 44.050781 36.683594 44.089844 37.089844 44.089844 37.5 M 37.839844 25 C 38.25 25 38.65625 24.960938 39.058594 24.878906 C 39.460938 24.800781 39.855469 24.679688 40.234375 24.523438 C 40.613281 24.367188 40.972656 24.175781 41.3125 23.945312 C 41.65625 23.71875 41.96875 23.460938 42.261719 23.167969 C 42.550781 22.878906 42.808594 22.5625 43.039062 22.222656 C 43.265625 21.882812 43.457031 21.519531 43.613281 21.140625 C 43.773438 20.761719 43.890625 20.371094 43.972656 19.96875 C 44.050781 19.566406 44.089844 19.160156 44.089844 18.75 C 44.089844 18.339844 44.050781 17.933594 43.972656 17.53125 C 43.890625 17.128906 43.773438 16.738281 43.613281 16.359375 C 43.457031 15.980469 43.265625 15.617188 43.039062 15.277344 C 42.808594 14.9375 42.550781 14.621094 42.261719 14.332031 C 41.96875 14.039062 41.65625 13.78125 41.3125 13.554688 C 40.972656 13.324219 40.613281 13.132812 40.234375 12.976562 C 39.855469 12.820312 39.460938 12.699219 39.058594 12.621094 C 38.65625 12.539062 38.25 12.5 37.839844 12.5 C 37.429688 12.5 37.023438 12.539062 36.621094 12.621094 C 36.21875 12.699219 35.828125 12.820312 35.449219 12.976562 C 35.070312 13.132812 34.710938 13.324219 34.367188 13.554688 C 34.027344 13.78125 33.710938 14.039062 33.421875 14.332031 C 33.132812 14.621094 32.871094 14.9375 32.644531 15.277344 C 32.417969 15.617188 32.222656 15.980469 32.066406 16.359375 C 31.910156 16.738281 31.792969 17.128906 31.710938 17.53125 C 31.632812 17.933594 31.589844 18.339844 31.589844 18.75 C 31.589844 19.160156 31.632812 19.566406 31.710938 19.96875 C 31.792969 20.371094 31.910156 20.761719 32.066406 21.140625 C 32.222656 21.519531 32.417969 21.882812 32.644531 22.222656 C 32.871094 22.5625 33.132812 22.878906 33.421875 23.167969 C 33.710938 23.460938 34.027344 23.71875 34.367188 23.945312 C 34.710938 24.175781 35.070312 24.367188 35.449219 24.523438 C 35.828125 24.679688 36.21875 24.800781 36.621094 24.878906 C 37.023438 24.960938 37.429688 25 37.839844 25 " fill-opacity="1" fill-rule="nonzero"/></svg>