<svg xmlns="http://www.w3.org/2000/svg" xmlns:xlink="http://www.w3.org/1999/xlink" width="80" zoomAndPan="magnify" viewBox="0 0 60 30.000001" height="40" preserveAspectRatio="xMidYMid meet" version="1.0"><defs><g/><clipPath id="81ed5ccd8d"><path d="M 0.96875 0 L 59.03125 0 L 59.03125 29.03125 L 0.96875 29.03125 Z M 0.96875 0 " clip-rule="nonzero"/></clipPath><clipPath id="066f0e2dd8"><path d="M 2.453125 10.863281 L 58.59375 10.863281 L 58.59375 23.820312 L 2.453125 23.820312 Z M 2.453125 10.863281 " clip-rule="nonzero"/></clipPath><clipPath id="ed3e3d4497"><path d="M 5.359375 10.863281 L 55.65625 10.863281 C 56.429688 10.863281 57.167969 11.167969 57.710938 11.710938 C 58.253906 12.257812 58.5625 12.996094 58.5625 13.765625 L 58.5625 20.917969 C 58.5625 21.6875 58.253906 22.425781 57.710938 22.972656 C 57.167969 23.515625 56.429688 23.820312 55.65625 23.820312 L 5.359375 23.820312 C 4.589844 23.820312 3.851562 23.515625 3.304688 22.972656 C 2.761719 22.425781 2.453125 21.6875 2.453125 20.917969 L 2.453125 13.765625 C 2.453125 12.996094 2.761719 12.257812 3.304688 11.710938 C 3.851562 11.167969 4.589844 10.863281 5.359375 10.863281 Z M 5.359375 10.863281 " clip-rule="nonzero"/></clipPath><clipPath id="eb86a37644"><path d="M 1 2.902344 L 14.757812 2.902344 L 14.757812 21.773438 L 1 21.773438 Z M 1 2.902344 " clip-rule="nonzero"/></clipPath></defs><g clip-path="url(#81ed5ccd8d)"><path fill="#ffffff" d="M 0.96875 0 L 59.03125 0 L 59.03125 29.03125 L 0.96875 29.03125 Z M 0.96875 0 " fill-opacity="1" fill-rule="nonzero"/><path fill="#ffffff" d="M 0.96875 0 L 59.03125 0 L 59.03125 29.03125 L 0.96875 29.03125 Z M 0.96875 0 " fill-opacity="1" fill-rule="nonzero"/></g><g clip-path="url(#066f0e2dd8)"><g clip-path="url(#ed3e3d4497)"><path fill="#000000" d="M 2.453125 10.863281 L 58.542969 10.863281 L 58.542969 23.820312 L 2.453125 23.820312 Z M 2.453125 10.863281 " fill-opacity="1" fill-rule="nonzero"/></g></g><g clip-path="url(#eb86a37644)"><path fill="#ffb929" d="M 14.890625 10.875 L 14.570312 8.039062 C 14.511719 7.542969 14.089844 7.167969 13.589844 7.167969 L 11.996094 7.167969 L 11.996094 6.359375 C 11.996094 4.460938 10.457031 2.921875 8.558594 2.921875 C 6.660156 2.921875 5.121094 4.460938 5.121094 6.359375 L 5.121094 7.167969 L 3.527344 7.167969 C 3.027344 7.167969 2.605469 7.542969 2.546875 8.039062 L 1.105469 20.683594 C 1.035156 21.289062 1.511719 21.816406 2.121094 21.816406 L 2.65625 21.816406 C 4.871094 12.316406 11.960938 11 14.890625 10.875 Z M 11.558594 8.199219 C 11.800781 8.199219 11.996094 8.398438 11.996094 8.636719 C 11.996094 8.878906 11.800781 9.078125 11.558594 9.078125 C 11.316406 9.078125 11.117188 8.878906 11.117188 8.636719 C 11.117188 8.398438 11.316406 8.199219 11.558594 8.199219 Z M 6 6.363281 C 6 4.953125 7.144531 3.804688 8.558594 3.804688 C 9.972656 3.804688 11.117188 4.953125 11.117188 6.363281 L 11.117188 7.171875 L 6 7.171875 Z M 5.558594 8.199219 C 5.800781 8.199219 6 8.398438 6 8.636719 C 6 8.878906 5.800781 9.078125 5.558594 9.078125 C 5.316406 9.078125 5.121094 8.878906 5.121094 8.636719 C 5.121094 8.398438 5.316406 8.199219 5.558594 8.199219 Z M 5.558594 8.199219 " fill-opacity="1" fill-rule="nonzero"/></g><g fill="#ffb929" fill-opacity="1"><g transform="translate(7.992033, 21.607118)"><g><path d="M 1.703125 -9.25 C 1.921875 -9.25 2.101562 -9.175781 2.25 -9.03125 C 2.40625 -8.882812 2.484375 -8.703125 2.484375 -8.484375 L 2.484375 -5.53125 C 2.722656 -5.875 3.019531 -6.164062 3.375 -6.40625 C 3.738281 -6.65625 4.191406 -6.78125 4.734375 -6.78125 C 5.128906 -6.78125 5.507812 -6.703125 5.875 -6.546875 C 6.25 -6.398438 6.578125 -6.179688 6.859375 -5.890625 C 7.148438 -5.597656 7.382812 -5.234375 7.5625 -4.796875 C 7.738281 -4.367188 7.828125 -3.878906 7.828125 -3.328125 L 7.828125 -3.3125 C 7.828125 -2.757812 7.738281 -2.265625 7.5625 -1.828125 C 7.394531 -1.398438 7.164062 -1.039062 6.875 -0.75 C 6.582031 -0.457031 6.25 -0.234375 5.875 -0.078125 C 5.507812 0.0664062 5.128906 0.140625 4.734375 0.140625 C 4.179688 0.140625 3.722656 0.0234375 3.359375 -0.203125 C 3.003906 -0.441406 2.710938 -0.71875 2.484375 -1.03125 L 2.484375 -0.6875 C 2.484375 -0.476562 2.40625 -0.300781 2.25 -0.15625 C 2.101562 -0.0078125 1.921875 0.0625 1.703125 0.0625 C 1.492188 0.0625 1.316406 -0.0078125 1.171875 -0.15625 C 1.023438 -0.300781 0.953125 -0.476562 0.953125 -0.6875 L 0.953125 -8.484375 C 0.953125 -8.703125 1.023438 -8.882812 1.171875 -9.03125 C 1.316406 -9.175781 1.492188 -9.25 1.703125 -9.25 Z M 2.4375 -3.328125 L 2.4375 -3.3125 C 2.4375 -2.988281 2.488281 -2.695312 2.59375 -2.4375 C 2.695312 -2.175781 2.835938 -1.953125 3.015625 -1.765625 C 3.191406 -1.578125 3.394531 -1.429688 3.625 -1.328125 C 3.863281 -1.234375 4.113281 -1.1875 4.375 -1.1875 C 4.632812 -1.1875 4.878906 -1.234375 5.109375 -1.328125 C 5.335938 -1.429688 5.535156 -1.570312 5.703125 -1.75 C 5.878906 -1.9375 6.019531 -2.160156 6.125 -2.421875 C 6.226562 -2.679688 6.28125 -2.976562 6.28125 -3.3125 L 6.28125 -3.328125 C 6.28125 -3.648438 6.226562 -3.941406 6.125 -4.203125 C 6.019531 -4.472656 5.878906 -4.695312 5.703125 -4.875 C 5.535156 -5.0625 5.335938 -5.203125 5.109375 -5.296875 C 4.878906 -5.398438 4.632812 -5.453125 4.375 -5.453125 C 4.113281 -5.453125 3.863281 -5.398438 3.625 -5.296875 C 3.394531 -5.203125 3.191406 -5.0625 3.015625 -4.875 C 2.835938 -4.6875 2.695312 -4.460938 2.59375 -4.203125 C 2.488281 -3.941406 2.4375 -3.648438 2.4375 -3.328125 Z M 2.4375 -3.328125 "/></g></g></g><g fill="#ffb929" fill-opacity="1"><g transform="translate(15.119777, 21.607118)"><g><path d="M 1.25 -6.71875 C 1.4375 -6.71875 1.585938 -6.664062 1.703125 -6.5625 C 1.828125 -6.457031 1.921875 -6.316406 1.984375 -6.140625 L 3.765625 -1.71875 L 5.4375 -6.140625 C 5.5 -6.296875 5.585938 -6.429688 5.703125 -6.546875 C 5.816406 -6.660156 5.96875 -6.71875 6.15625 -6.71875 C 6.363281 -6.71875 6.535156 -6.644531 6.671875 -6.5 C 6.816406 -6.363281 6.890625 -6.195312 6.890625 -6 C 6.890625 -5.863281 6.867188 -5.742188 6.828125 -5.640625 L 4.40625 0.1875 C 4.257812 0.53125 4.109375 0.816406 3.953125 1.046875 C 3.804688 1.285156 3.644531 1.476562 3.46875 1.625 C 3.289062 1.769531 3.09375 1.875 2.875 1.9375 C 2.664062 2.007812 2.425781 2.046875 2.15625 2.046875 C 1.945312 2.046875 1.757812 2.03125 1.59375 2 C 1.425781 1.976562 1.265625 1.929688 1.109375 1.859375 C 0.992188 1.816406 0.882812 1.75 0.78125 1.65625 C 0.675781 1.5625 0.625 1.421875 0.625 1.234375 C 0.625 1.035156 0.6875 0.878906 0.8125 0.765625 C 0.9375 0.660156 1.082031 0.609375 1.25 0.609375 C 1.3125 0.609375 1.359375 0.609375 1.390625 0.609375 C 1.429688 0.617188 1.472656 0.632812 1.515625 0.65625 C 1.609375 0.675781 1.691406 0.691406 1.765625 0.703125 C 1.847656 0.722656 1.941406 0.734375 2.046875 0.734375 C 2.273438 0.734375 2.457031 0.679688 2.59375 0.578125 C 2.738281 0.472656 2.875 0.289062 3 0.03125 L 3.046875 -0.09375 L 0.578125 -5.609375 C 0.515625 -5.722656 0.484375 -5.84375 0.484375 -5.96875 C 0.484375 -6.1875 0.554688 -6.363281 0.703125 -6.5 C 0.847656 -6.644531 1.03125 -6.71875 1.25 -6.71875 Z M 1.25 -6.71875 "/></g></g></g><g fill="#ffb929" fill-opacity="1"><g transform="translate(21.191526, 21.607118)"><g><path d="M 0.359375 -5.984375 C 0.359375 -6.171875 0.421875 -6.328125 0.546875 -6.453125 C 0.671875 -6.578125 0.828125 -6.640625 1.015625 -6.640625 L 1.265625 -6.640625 L 1.265625 -7.765625 C 1.265625 -7.984375 1.335938 -8.164062 1.484375 -8.3125 C 1.628906 -8.457031 1.8125 -8.53125 2.03125 -8.53125 C 2.25 -8.53125 2.429688 -8.457031 2.578125 -8.3125 C 2.722656 -8.164062 2.796875 -7.984375 2.796875 -7.765625 L 2.796875 -6.640625 L 3.984375 -6.640625 C 4.171875 -6.640625 4.328125 -6.578125 4.453125 -6.453125 C 4.585938 -6.328125 4.65625 -6.171875 4.65625 -5.984375 C 4.65625 -5.796875 4.585938 -5.640625 4.453125 -5.515625 C 4.328125 -5.390625 4.171875 -5.328125 3.984375 -5.328125 L 2.796875 -5.328125 L 2.796875 -2.078125 C 2.796875 -1.785156 2.863281 -1.570312 3 -1.4375 C 3.144531 -1.3125 3.347656 -1.25 3.609375 -1.25 C 3.703125 -1.25 3.78125 -1.253906 3.84375 -1.265625 C 3.914062 -1.273438 3.960938 -1.28125 3.984375 -1.28125 C 4.148438 -1.28125 4.296875 -1.21875 4.421875 -1.09375 C 4.554688 -0.976562 4.625 -0.832031 4.625 -0.65625 C 4.625 -0.507812 4.582031 -0.382812 4.5 -0.28125 C 4.425781 -0.175781 4.332031 -0.101562 4.21875 -0.0625 C 4.050781 0 3.882812 0.0390625 3.71875 0.0625 C 3.5625 0.09375 3.382812 0.109375 3.1875 0.109375 C 2.90625 0.109375 2.644531 0.0703125 2.40625 0 C 2.175781 -0.0625 1.972656 -0.164062 1.796875 -0.3125 C 1.628906 -0.46875 1.5 -0.671875 1.40625 -0.921875 C 1.3125 -1.171875 1.265625 -1.476562 1.265625 -1.84375 L 1.265625 -5.328125 L 1.015625 -5.328125 C 0.828125 -5.328125 0.671875 -5.390625 0.546875 -5.515625 C 0.421875 -5.640625 0.359375 -5.796875 0.359375 -5.984375 Z M 0.359375 -5.984375 "/></g></g></g><g fill="#ffb929" fill-opacity="1"><g transform="translate(25.050712, 21.607118)"><g><path d="M 0.59375 -3.328125 C 0.59375 -3.796875 0.671875 -4.238281 0.828125 -4.65625 C 0.984375 -5.082031 1.207031 -5.453125 1.5 -5.765625 C 1.789062 -6.078125 2.132812 -6.320312 2.53125 -6.5 C 2.925781 -6.6875 3.363281 -6.78125 3.84375 -6.78125 C 4.363281 -6.78125 4.820312 -6.679688 5.21875 -6.484375 C 5.613281 -6.285156 5.941406 -6.03125 6.203125 -5.71875 C 6.472656 -5.40625 6.671875 -5.054688 6.796875 -4.671875 C 6.929688 -4.285156 7 -3.898438 7 -3.515625 C 7 -3.296875 6.925781 -3.117188 6.78125 -2.984375 C 6.632812 -2.847656 6.46875 -2.78125 6.28125 -2.78125 L 2.109375 -2.78125 C 2.191406 -2.226562 2.40625 -1.804688 2.75 -1.515625 C 3.09375 -1.234375 3.519531 -1.09375 4.03125 -1.09375 C 4.34375 -1.09375 4.625 -1.144531 4.875 -1.25 C 5.132812 -1.351562 5.375 -1.492188 5.59375 -1.671875 C 5.65625 -1.710938 5.710938 -1.742188 5.765625 -1.765625 C 5.816406 -1.796875 5.890625 -1.8125 5.984375 -1.8125 C 6.148438 -1.8125 6.289062 -1.75 6.40625 -1.625 C 6.53125 -1.507812 6.59375 -1.363281 6.59375 -1.1875 C 6.59375 -1.101562 6.570312 -1.019531 6.53125 -0.9375 C 6.5 -0.851562 6.453125 -0.785156 6.390625 -0.734375 C 6.085938 -0.460938 5.742188 -0.242188 5.359375 -0.078125 C 4.984375 0.078125 4.53125 0.15625 4 0.15625 C 3.519531 0.15625 3.070312 0.0703125 2.65625 -0.09375 C 2.238281 -0.269531 1.878906 -0.503906 1.578125 -0.796875 C 1.273438 -1.097656 1.035156 -1.460938 0.859375 -1.890625 C 0.679688 -2.316406 0.59375 -2.785156 0.59375 -3.296875 Z M 2.09375 -3.78125 L 5.515625 -3.78125 C 5.484375 -4.03125 5.425781 -4.257812 5.34375 -4.46875 C 5.257812 -4.6875 5.144531 -4.867188 5 -5.015625 C 4.863281 -5.171875 4.695312 -5.296875 4.5 -5.390625 C 4.300781 -5.484375 4.078125 -5.53125 3.828125 -5.53125 C 3.347656 -5.53125 2.957031 -5.367188 2.65625 -5.046875 C 2.351562 -4.734375 2.164062 -4.3125 2.09375 -3.78125 Z M 2.09375 -3.78125 "/></g></g></g><g fill="#ffb929" fill-opacity="1"><g transform="translate(31.336175, 21.607118)"><g><path d="M 1.125 -0.78125 L 1.125 -8.03125 C 1.125 -8.25 1.195312 -8.429688 1.34375 -8.578125 C 1.5 -8.722656 1.6875 -8.796875 1.90625 -8.796875 L 5.078125 -8.796875 C 5.429688 -8.796875 5.78125 -8.753906 6.125 -8.671875 C 6.476562 -8.585938 6.789062 -8.457031 7.0625 -8.28125 C 7.332031 -8.113281 7.550781 -7.882812 7.71875 -7.59375 C 7.882812 -7.3125 7.96875 -6.96875 7.96875 -6.5625 L 7.96875 -6.546875 C 7.96875 -6.285156 7.929688 -6.046875 7.859375 -5.828125 C 7.796875 -5.617188 7.707031 -5.4375 7.59375 -5.28125 C 7.476562 -5.125 7.34375 -4.988281 7.1875 -4.875 C 7.039062 -4.757812 6.882812 -4.660156 6.71875 -4.578125 C 6.976562 -4.484375 7.210938 -4.375 7.421875 -4.25 C 7.640625 -4.132812 7.828125 -3.992188 7.984375 -3.828125 C 8.140625 -3.660156 8.257812 -3.460938 8.34375 -3.234375 C 8.425781 -3.003906 8.46875 -2.738281 8.46875 -2.4375 L 8.46875 -2.421875 C 8.46875 -2.023438 8.390625 -1.675781 8.234375 -1.375 C 8.078125 -1.070312 7.851562 -0.816406 7.5625 -0.609375 C 7.28125 -0.410156 6.941406 -0.257812 6.546875 -0.15625 C 6.148438 -0.0507812 5.703125 0 5.203125 0 L 1.90625 0 C 1.6875 0 1.5 -0.0703125 1.34375 -0.21875 C 1.195312 -0.375 1.125 -0.5625 1.125 -0.78125 Z M 2.65625 -1.375 L 5.21875 -1.375 C 5.75 -1.375 6.164062 -1.472656 6.46875 -1.671875 C 6.769531 -1.867188 6.921875 -2.171875 6.921875 -2.578125 L 6.921875 -2.609375 C 6.921875 -2.984375 6.769531 -3.269531 6.46875 -3.46875 C 6.175781 -3.675781 5.722656 -3.78125 5.109375 -3.78125 L 2.65625 -3.78125 Z M 2.65625 -7.4375 L 2.65625 -5.09375 L 4.765625 -5.09375 C 5.265625 -5.09375 5.664062 -5.191406 5.96875 -5.390625 C 6.269531 -5.585938 6.421875 -5.882812 6.421875 -6.28125 L 6.421875 -6.3125 C 6.421875 -6.664062 6.289062 -6.941406 6.03125 -7.140625 C 5.769531 -7.335938 5.382812 -7.4375 4.875 -7.4375 Z M 2.65625 -7.4375 "/></g></g></g><g fill="#ffb929" fill-opacity="1"><g transform="translate(39.105061, 21.607118)"><g><path d="M 4.140625 -6.78125 C 4.648438 -6.78125 5.117188 -6.6875 5.546875 -6.5 C 5.984375 -6.320312 6.359375 -6.078125 6.671875 -5.765625 C 6.984375 -5.453125 7.226562 -5.085938 7.40625 -4.671875 C 7.582031 -4.253906 7.671875 -3.804688 7.671875 -3.328125 L 7.671875 -3.3125 C 7.671875 -2.84375 7.578125 -2.394531 7.390625 -1.96875 C 7.210938 -1.550781 6.96875 -1.1875 6.65625 -0.875 C 6.34375 -0.5625 5.96875 -0.3125 5.53125 -0.125 C 5.09375 0.0625 4.617188 0.15625 4.109375 0.15625 C 3.609375 0.15625 3.140625 0.0664062 2.703125 -0.109375 C 2.273438 -0.296875 1.90625 -0.546875 1.59375 -0.859375 C 1.28125 -1.171875 1.035156 -1.535156 0.859375 -1.953125 C 0.679688 -2.367188 0.59375 -2.8125 0.59375 -3.28125 L 0.59375 -3.3125 C 0.59375 -3.789062 0.679688 -4.238281 0.859375 -4.65625 C 1.035156 -5.070312 1.28125 -5.4375 1.59375 -5.75 C 1.914062 -6.0625 2.289062 -6.3125 2.71875 -6.5 C 3.15625 -6.6875 3.628906 -6.78125 4.140625 -6.78125 Z M 4.140625 -1.1875 C 4.453125 -1.1875 4.726562 -1.238281 4.96875 -1.34375 C 5.21875 -1.457031 5.429688 -1.609375 5.609375 -1.796875 C 5.785156 -1.992188 5.921875 -2.21875 6.015625 -2.46875 C 6.109375 -2.726562 6.15625 -3 6.15625 -3.28125 L 6.15625 -3.3125 C 6.15625 -3.601562 6.101562 -3.878906 6 -4.140625 C 5.894531 -4.398438 5.753906 -4.625 5.578125 -4.8125 C 5.398438 -5.007812 5.1875 -5.164062 4.9375 -5.28125 C 4.6875 -5.394531 4.410156 -5.453125 4.109375 -5.453125 C 3.804688 -5.453125 3.53125 -5.394531 3.28125 -5.28125 C 3.039062 -5.164062 2.832031 -5.015625 2.65625 -4.828125 C 2.476562 -4.640625 2.34375 -4.414062 2.25 -4.15625 C 2.15625 -3.894531 2.109375 -3.617188 2.109375 -3.328125 L 2.109375 -3.3125 C 2.109375 -3.019531 2.160156 -2.742188 2.265625 -2.484375 C 2.367188 -2.222656 2.507812 -1.992188 2.6875 -1.796875 C 2.863281 -1.609375 3.078125 -1.457031 3.328125 -1.34375 C 3.578125 -1.238281 3.847656 -1.1875 4.140625 -1.1875 Z M 4.140625 -1.1875 "/></g></g></g><g fill="#ffb929" fill-opacity="1"><g transform="translate(46.056806, 21.607118)"><g><path d="M 0.875 -2.421875 L 0.875 -5.953125 C 0.875 -6.171875 0.945312 -6.351562 1.09375 -6.5 C 1.25 -6.644531 1.429688 -6.71875 1.640625 -6.71875 C 1.859375 -6.71875 2.039062 -6.644531 2.1875 -6.5 C 2.332031 -6.351562 2.40625 -6.171875 2.40625 -5.953125 L 2.40625 -2.875 C 2.40625 -2.34375 2.523438 -1.9375 2.765625 -1.65625 C 3.015625 -1.382812 3.367188 -1.25 3.828125 -1.25 C 4.273438 -1.25 4.632812 -1.390625 4.90625 -1.671875 C 5.1875 -1.953125 5.328125 -2.359375 5.328125 -2.890625 L 5.328125 -5.953125 C 5.328125 -6.171875 5.398438 -6.351562 5.546875 -6.5 C 5.691406 -6.644531 5.875 -6.71875 6.09375 -6.71875 C 6.300781 -6.71875 6.476562 -6.644531 6.625 -6.5 C 6.78125 -6.351562 6.859375 -6.171875 6.859375 -5.953125 L 6.859375 -0.6875 C 6.859375 -0.476562 6.785156 -0.300781 6.640625 -0.15625 C 6.492188 -0.0078125 6.3125 0.0625 6.09375 0.0625 C 5.875 0.0625 5.691406 -0.00390625 5.546875 -0.140625 C 5.398438 -0.285156 5.328125 -0.46875 5.328125 -0.6875 L 5.328125 -1.03125 C 5.109375 -0.707031 4.832031 -0.429688 4.5 -0.203125 C 4.175781 0.0234375 3.757812 0.140625 3.25 0.140625 C 2.476562 0.140625 1.890625 -0.0859375 1.484375 -0.546875 C 1.078125 -1.003906 0.875 -1.628906 0.875 -2.421875 Z M 0.875 -2.421875 "/></g></g></g><g fill="#ffb929" fill-opacity="1"><g transform="translate(52.543409, 21.607118)"><g><path d="M 1.046875 -8.484375 C 1.046875 -8.691406 1.113281 -8.867188 1.25 -9.015625 C 1.394531 -9.171875 1.578125 -9.25 1.796875 -9.25 C 2.015625 -9.25 2.195312 -9.171875 2.34375 -9.015625 C 2.488281 -8.867188 2.5625 -8.691406 2.5625 -8.484375 L 2.5625 -0.6875 C 2.5625 -0.46875 2.488281 -0.285156 2.34375 -0.140625 C 2.195312 -0.00390625 2.015625 0.0625 1.796875 0.0625 C 1.585938 0.0625 1.410156 -0.00390625 1.265625 -0.140625 C 1.117188 -0.285156 1.046875 -0.46875 1.046875 -0.6875 Z M 1.046875 -8.484375 "/></g></g></g></svg>