<svg xmlns="http://www.w3.org/2000/svg" xmlns:xlink="http://www.w3.org/1999/xlink" width="100" zoomAndPan="magnify" viewBox="0 0 75 74.999997" height="100" preserveAspectRatio="xMidYMid meet" version="1.0"><defs><clipPath id="1521cc6b66"><path d="M 2.25 0 L 72.75 0 L 72.75 47 L 2.25 47 Z M 2.25 0 " clip-rule="nonzero"/></clipPath><clipPath id="b50c80a86e"><path d="M 15 44 L 72.75 44 L 72.75 57 L 15 57 Z M 15 44 " clip-rule="nonzero"/></clipPath></defs><g clip-path="url(#1521cc6b66)"><path fill="#000000" d="M 63.28125 46.667969 L 23.6875 46.667969 C 23.15625 46.667969 22.6875 46.308594 22.546875 45.792969 L 13.550781 12.347656 C 13.546875 12.332031 13.542969 12.3125 13.539062 12.296875 L 11.964844 6.449219 L 5.488281 6.449219 C 3.710938 6.449219 2.261719 5.003906 2.261719 3.226562 C 2.261719 1.449219 3.710938 0 5.488281 0 L 11.773438 0 C 12.308594 0 12.777344 0.359375 12.917969 0.875 L 14.007812 4.933594 C 14.011719 4.949219 14.015625 4.96875 14.019531 4.984375 L 15.621094 10.925781 L 71.628906 17.207031 C 71.976562 17.246094 72.292969 17.441406 72.484375 17.734375 C 72.679688 18.027344 72.730469 18.390625 72.628906 18.726562 L 64.414062 45.828125 C 64.261719 46.328125 63.804688 46.667969 63.28125 46.667969 Z M 24.597656 44.304688 L 62.40625 44.304688 L 69.953125 19.402344 L 16.28125 13.382812 Z M 5.488281 2.367188 C 5.015625 2.367188 4.628906 2.75 4.628906 3.226562 C 4.628906 3.699219 5.015625 4.085938 5.488281 4.085938 L 11.332031 4.085938 L 10.867188 2.367188 Z M 5.488281 2.367188 " fill-opacity="1" fill-rule="nonzero"/></g><g clip-path="url(#b50c80a86e)"><path fill="#000000" d="M 70.851562 56.195312 L 17.074219 56.195312 C 16.636719 56.195312 16.230469 55.953125 16.027344 55.5625 C 15.824219 55.171875 15.851562 54.703125 16.101562 54.339844 L 22.714844 44.8125 C 23.089844 44.277344 23.828125 44.140625 24.363281 44.515625 C 24.898438 44.886719 25.03125 45.625 24.660156 46.164062 L 19.335938 53.832031 L 70.851562 53.832031 C 71.503906 53.832031 72.03125 54.363281 72.03125 55.015625 C 72.03125 55.667969 71.507812 56.195312 70.851562 56.195312 Z M 70.851562 56.195312 " fill-opacity="1" fill-rule="nonzero"/></g><path fill="#000000" d="M 26.417969 74.992188 C 21.664062 74.992188 17.796875 71.125 17.796875 66.371094 C 17.796875 61.617188 21.664062 57.75 26.417969 57.75 C 31.171875 57.75 35.039062 61.617188 35.039062 66.371094 C 35.039062 71.125 31.167969 74.992188 26.417969 74.992188 Z M 26.417969 60.117188 C 22.96875 60.117188 20.160156 62.925781 20.160156 66.375 C 20.160156 69.824219 22.96875 72.628906 26.417969 72.628906 C 29.867188 72.628906 32.671875 69.824219 32.671875 66.375 C 32.671875 62.925781 29.863281 60.117188 26.417969 60.117188 Z M 26.417969 60.117188 " fill-opacity="1" fill-rule="nonzero"/><path fill="#000000" d="M 60.253906 74.992188 C 55.5 74.992188 51.632812 71.125 51.632812 66.371094 C 51.632812 61.617188 55.5 57.75 60.253906 57.75 C 65.007812 57.75 68.878906 61.617188 68.878906 66.371094 C 68.878906 71.125 65.007812 74.992188 60.253906 74.992188 Z M 60.253906 60.117188 C 56.804688 60.117188 54 62.925781 54 66.375 C 54 69.824219 56.804688 72.628906 60.253906 72.628906 C 63.703125 72.628906 66.511719 69.824219 66.511719 66.375 C 66.511719 62.925781 63.703125 60.117188 60.253906 60.117188 Z M 60.253906 60.117188 " fill-opacity="1" fill-rule="nonzero"/></svg>